PathFileType	4	(X/Y/Z)	TVC_9_Cal_03_0_static_RCNL2025.trc
DataRate	CameraRate	NumFrames	NumMarkers	Units	OrigDataRate	OrigDataStartFrame	OrigNumFrames
100	100	10	27	mm	100	131	260
Frame#	Time	R_Shoulder			L_Shoulder			C7			J_Notch			R_Elbow			L_Elbow			R_Wrist			L_Wrist			R_Asis			L_Asis			R_Psis			L_Psis			Sacral			Thoracic			Sternum			R_Thigh_Lateral			R_Knee_Lateral			R_Shank_Lateral			R_Ankle_Lateral			R_Heel			R_Toe			L_Thigh_Lateral			L_Knee_Lateral			L_Shank_Lateral			L_Ankle_Lateral			L_Heel			L_Toe		
		X1	Y1	Z1	X2	Y2	Z2	X3	Y3	Z3	X4	Y4	Z4	X5	Y5	Z5	X6	Y6	Z6	X7	Y7	Z7	X8	Y8	Z8	X9	Y9	Z9	X10	Y10	Z10	X11	Y11	Z11	X12	Y12	Z12	X13	Y13	Z13	X14	Y14	Z14	X15	Y15	Z15	X16	Y16	Z16	X17	Y17	Z17	X18	Y18	Z18	X19	Y19	Z19	X20	Y20	Z20	X21	Y21	Z21	X22	Y22	Z22	X23	Y23	Z23	X24	Y24	Z24	X25	Y25	Z25	X26	Y26	Z26	X27	Y27	Z27
131	1.30000000	-190.159821	1392.132202	-117.873405	-309.217163	1363.020630	-492.052643	-311.600677	1445.844727	-300.774719	-159.880447	1341.263550	-320.574310	-202.100998	1114.589844	63.082790	-303.681152	1039.774902	-596.818848	-142.279182	875.559174	47.845972	-235.271263	805.196594	-563.178253	-172.942825	937.715027	-129.243942	-236.484573	935.680664	-431.528900	-386.203979	952.658997	-191.289215	-404.760437	949.443970	-288.405243	-395.482208	951.051483	-239.847229	-401.616730	1168.543213	-251.949142	-108.139816	1151.310181	-318.391266	-251.050598	538.922363	-52.527969	-291.254456	442.914551	-113.374023	-269.430237	302.120941	-69.305298	-301.138184	74.056084	-139.991211	-355.206451	60.288792	-201.443466	-172.098862	48.931156	-179.323410	-237.138687	569.726685	-463.956726	-253.845886	419.913391	-411.436005	-274.484009	304.346100	-455.369446	-308.769958	79.836098	-378.721954	-353.909271	53.677528	-315.550568	-167.957336	44.335541	-372.070221
132	1.31000000	-190.054092	1392.196777	-117.968155	-309.226105	1363.065186	-492.088257	-311.562286	1445.928589	-300.838684	-159.894669	1341.290771	-320.594269	-202.013260	1114.719727	62.995903	-303.664307	1039.864990	-596.965759	-142.283051	875.592590	47.735460	-235.298569	805.220734	-563.179443	-172.850998	937.717163	-129.328476	-236.582458	935.703430	-431.644745	-386.267395	952.669983	-191.375763	-404.977234	949.604370	-288.356537	-395.622314	951.137177	-239.866150	-401.669769	1168.606934	-252.047470	-108.138870	1151.298218	-318.430542	-251.214966	538.927856	-52.539757	-291.370331	442.932495	-113.381134	-269.040680	301.961456	-69.219032	-301.273926	74.037941	-139.931412	-355.216583	60.296932	-201.440216	-172.096680	48.886143	-179.295181	-237.354446	569.636841	-464.070007	-254.012054	419.883362	-411.470245	-274.639618	304.214355	-455.539764	-308.735962	79.888763	-379.056427	-353.859528	53.656693	-315.594360	-167.950012	44.309746	-372.177948
133	1.32000000	-189.916458	1392.243896	-118.080933	-309.266022	1363.136963	-492.156586	-311.602051	1445.922119	-300.911652	-159.819931	1341.289917	-320.621216	-201.827988	1114.826782	62.911388	-303.523560	1039.861572	-597.026978	-142.170715	875.687134	47.609880	-235.332199	805.205872	-563.208221	-173.083588	937.299988	-129.170837	-236.677628	935.702209	-431.693481	-386.387299	952.681458	-191.303085	-405.322937	949.828552	-288.118561	-395.855118	951.255005	-239.710823	-401.735382	1168.620850	-252.112274	-108.284645	1151.265625	-318.474762	-251.425003	539.061584	-52.447464	-291.846832	443.127533	-113.326622	-268.992889	301.899628	-69.280113	-301.233582	74.077736	-139.944016	-355.218201	60.258671	-201.404892	-172.116425	48.959309	-179.274872	-237.496338	569.645691	-464.115662	-254.156128	419.934692	-411.350952	-274.844147	304.185272	-455.567963	-308.804749	79.849922	-378.756714	-353.844025	53.646667	-315.619385	-167.935669	44.312077	-372.174713
134	1.33000000	-189.903244	1392.325684	-118.216232	-309.273010	1363.141113	-492.183197	-311.606079	1445.920044	-300.913666	-159.872253	1341.326050	-320.736572	-201.691360	1114.882324	62.793983	-303.480530	1039.872192	-597.107239	-142.121376	875.758362	47.581425	-235.321533	805.234558	-563.393005	-172.195633	937.644104	-129.282318	-236.836807	935.655212	-431.718933	-386.420288	952.715576	-191.387543	-405.363586	949.850586	-288.090607	-395.891937	951.283081	-239.739075	-401.737915	1168.638916	-252.134705	-108.236687	1151.244141	-318.567780	-251.456589	539.105469	-52.619553	-291.847229	443.183472	-113.615677	-269.076721	301.944275	-69.246002	-301.246338	74.135078	-139.960632	-355.172943	60.273067	-201.412186	-172.063812	49.018559	-179.320633	-237.678177	569.572754	-464.166962	-254.309494	419.961975	-411.352997	-274.819885	304.255920	-455.521973	-308.792511	79.827507	-378.759338	-353.844055	53.672104	-315.620422	-167.909592	44.338161	-372.211395
135	1.34000000	-189.787369	1392.332642	-118.317299	-309.261688	1363.101807	-492.214325	-311.605499	1445.920166	-300.911255	-159.896881	1341.272217	-320.764038	-201.569794	1114.910400	62.704693	-303.482880	1039.906494	-597.161987	-142.034096	875.769958	47.559691	-235.316078	805.225037	-563.495361	-171.858719	937.733093	-129.337112	-236.877655	935.720703	-431.919403	-386.468018	952.682678	-191.424622	-405.440613	949.903503	-288.012054	-395.954315	951.293091	-239.718338	-401.771606	1168.695068	-252.237305	-108.370911	1151.236206	-318.572174	-251.445129	539.095398	-52.682007	-291.913330	443.096161	-113.697227	-269.418579	302.062012	-69.337173	-301.219208	74.097466	-139.975922	-355.310547	60.394821	-201.393158	-172.074661	48.940014	-179.379608	-237.972260	569.526733	-464.158051	-254.528046	420.119904	-411.431458	-274.742157	303.953156	-455.384003	-308.783539	79.865761	-378.776031	-353.879913	53.741463	-315.572662	-167.934097	44.399754	-372.227814
136	1.35000000	-189.763168	1392.436035	-118.343826	-309.334930	1363.131592	-492.268463	-311.639618	1445.937988	-300.924652	-159.951950	1341.213379	-320.894470	-201.569931	1114.887695	62.682560	-303.590149	1040.030762	-597.316406	-141.943970	875.867432	47.591677	-235.258804	805.277313	-563.640686	-171.977219	937.662048	-129.501846	-236.893311	935.801575	-432.074829	-386.489746	952.746948	-191.364273	-405.369843	949.870422	-288.279236	-395.929794	951.308685	-239.821754	-401.833435	1168.727051	-252.303680	-108.433304	1151.162598	-318.581390	-251.536774	539.119263	-52.699890	-291.989502	443.116089	-113.691795	-269.144440	301.940094	-69.324982	-301.241364	74.139969	-139.961258	-355.193878	60.323009	-201.434875	-172.094330	48.995243	-179.369598	-238.316025	569.528137	-464.184174	-254.768341	420.182129	-411.410797	-274.834259	303.943115	-455.330475	-308.734467	79.929222	-379.065948	-353.904175	53.703583	-315.551575	-167.981613	44.431206	-372.191559
137	1.36000000	-189.715347	1392.510986	-118.358246	-309.329651	1363.131348	-492.304840	-311.600739	1445.900024	-300.925415	-159.895554	1341.162842	-320.884827	-201.349365	1114.901489	62.543686	-303.593658	1039.966553	-597.379211	-141.860382	875.887878	47.621299	-235.237976	805.271118	-563.833618	-172.193665	937.660400	-129.742264	-237.030869	935.851685	-432.090179	-386.522095	952.805664	-191.326660	-405.458374	949.924988	-288.231445	-395.990234	951.365326	-239.779053	-401.864410	1168.780518	-252.275345	-108.480804	1151.004150	-318.570679	-251.680069	539.129211	-52.747578	-292.043793	443.109131	-113.751419	-269.170044	301.962494	-69.409149	-301.216888	74.105835	-139.972763	-355.236816	60.282619	-201.478043	-172.088577	48.888977	-179.421036	-238.697525	569.565125	-464.136017	-255.004181	420.124878	-411.415436	-275.241241	304.330322	-455.434357	-308.732697	79.959213	-379.066711	-354.035828	53.697670	-315.580658	-168.024841	44.483994	-372.173187
138	1.37000000	-189.596222	1392.482666	-118.451965	-309.227844	1363.057617	-492.389374	-311.571686	1445.937500	-300.969238	-159.864578	1341.230835	-321.009613	-201.444000	1114.906738	62.479652	-303.644226	1039.982544	-597.469482	-141.880920	875.948914	47.706599	-235.319214	805.278320	-563.897369	-172.291367	937.624146	-129.805420	-237.346252	935.925049	-432.058167	-386.547119	952.800659	-191.298492	-405.604401	950.048767	-288.025787	-396.075760	951.424713	-239.662140	-401.876770	1168.848389	-252.264328	-108.673401	1150.844849	-318.541260	-251.750610	539.147156	-52.809982	-292.072968	443.079681	-113.770668	-269.198029	301.944336	-69.411377	-301.206421	74.097382	-139.977005	-355.168976	60.271015	-201.453476	-172.130341	48.892517	-179.381882	-239.070496	569.533630	-464.182495	-255.259155	420.070190	-411.382660	-275.518494	304.437805	-455.634369	-308.900482	79.844345	-378.769379	-354.041595	53.587425	-315.558258	-168.046097	44.491978	-372.124603
139	1.38000000	-189.613342	1392.562500	-118.451088	-309.246002	1363.188354	-492.431122	-311.543610	1445.965576	-301.006653	-159.812607	1341.227417	-321.009827	-201.338364	1114.993164	62.415382	-303.648743	1040.048828	-597.666565	-141.792664	875.933197	47.649219	-235.368263	805.328522	-564.009674	-172.165115	937.648743	-129.901489	-237.438019	936.045044	-432.175964	-386.636719	952.819092	-191.240555	-405.788086	950.180786	-287.982056	-396.212402	951.499939	-239.611305	-401.938141	1168.860352	-252.321960	-108.701286	1150.761230	-318.652740	-251.746811	539.180054	-53.099213	-292.124176	443.106049	-113.811279	-269.185913	301.940704	-69.425316	-301.246765	74.123749	-139.940247	-355.196472	60.295738	-201.449219	-172.075806	48.949554	-179.409119	-239.338287	569.612488	-464.210754	-255.547623	420.173340	-411.446045	-275.662903	304.504425	-455.529510	-308.904602	79.952255	-379.048584	-354.055267	53.695259	-315.548218	-168.089996	44.537643	-372.185150
140	1.39000000	-189.617889	1392.659912	-118.469101	-309.271271	1363.192139	-492.445099	-311.463806	1446.011108	-301.070526	-159.807846	1341.339722	-321.103363	-201.274918	1115.072632	62.372456	-303.635956	1040.229980	-597.621094	-141.694893	876.005615	47.611439	-235.356651	805.438477	-564.122803	-172.102722	937.659485	-129.932922	-237.554947	936.071777	-432.199860	-386.631714	952.830505	-191.256561	-405.786316	950.102783	-288.223969	-396.209015	951.466644	-239.740265	-401.933075	1168.933594	-252.346359	-108.743713	1150.702515	-318.744537	-251.840057	539.145630	-52.976353	-292.144470	443.075409	-113.825600	-269.107056	301.980255	-69.461342	-301.235168	74.123390	-139.965698	-355.159424	60.339046	-201.417557	-172.050430	48.997318	-179.421967	-239.511185	569.661072	-464.165100	-255.716537	420.226440	-411.572998	-275.802277	304.408234	-455.525208	-308.893677	79.999611	-379.089355	-354.072693	53.715462	-315.534790	-168.193466	44.565590	-372.146027
